<?xml version="1.0" encoding="UTF-8" standalone="no"?>
<!DOCTYPE svg PUBLIC "-//W3C//DTD SVG 1.1//EN"
 "http://www.w3.org/Graphics/SVG/1.1/DTD/svg11.dtd">
<!-- Generated by graphviz version 2.43.0 (0)
 -->
<!-- Title: pipeline_dag Pages: 1 -->
<svg width="541pt" height="558pt"
 viewBox="0.00 0.00 540.54 558.00" xmlns="http://www.w3.org/2000/svg" xmlns:xlink="http://www.w3.org/1999/xlink">
<g id="graph0" class="graph" transform="scale(1 1) rotate(0) translate(4 554)">
<title>pipeline_dag</title>
<polygon fill="white" stroke="transparent" points="-4,4 -4,-554 536.54,-554 536.54,4 -4,4"/>
<!-- p0 -->
<g id="node1" class="node">
<title>p0</title>
<ellipse fill="black" stroke="black" cx="154.04" cy="-531.4" rx="3.6" ry="3.6"/>
<text text-anchor="middle" x="85.44" y="-538.8" font-family="Times,serif" font-size="14.00">Channel.fromPath</text>
</g>
<!-- p1 -->
<g id="node2" class="node">
<title>p1</title>
<ellipse fill="none" stroke="black" cx="154.04" cy="-487.2" rx="3.5" ry="3.5"/>
<text text-anchor="middle" x="121.54" y="-494.5" font-family="Times,serif" font-size="14.00">ifEmpty</text>
</g>
<!-- p0&#45;&gt;p1 -->
<g id="edge1" class="edge">
<title>p0&#45;&gt;p1</title>
<path fill="none" stroke="black" d="M154.04,-527.63C154.04,-522.33 154.04,-510.43 154.04,-501.08"/>
<polygon fill="black" stroke="black" points="157.54,-501.03 154.04,-491.03 150.54,-501.03 157.54,-501.03"/>
</g>
<!-- p5 -->
<g id="node3" class="node">
<title>p5</title>
<ellipse fill="none" stroke="black" cx="293.04" cy="-414.6" rx="163.27" ry="18"/>
<text text-anchor="middle" x="293.04" y="-410.9" font-family="Times,serif" font-size="14.00">vcftosnpFlow:MINIMAP2_INDEX</text>
</g>
<!-- p1&#45;&gt;p5 -->
<g id="edge2" class="edge">
<title>p1&#45;&gt;p5</title>
<path fill="none" stroke="black" d="M156.94,-484.73C168.93,-478.64 215.61,-454.92 250.99,-436.96"/>
<polygon fill="black" stroke="black" points="252.84,-439.94 260.17,-432.29 249.67,-433.7 252.84,-439.94"/>
<text text-anchor="middle" x="264.04" y="-454.4" font-family="Times,serif" font-size="14.00">genome_ch</text>
</g>
<!-- p12 -->
<g id="node14" class="node">
<title>p12</title>
<ellipse fill="none" stroke="black" cx="102.04" cy="-375.1" rx="3.5" ry="3.5"/>
<text text-anchor="middle" x="83.04" y="-382.4" font-family="Times,serif" font-size="14.00">first</text>
</g>
<!-- p1&#45;&gt;p12 -->
<g id="edge13" class="edge">
<title>p1&#45;&gt;p12</title>
<path fill="none" stroke="black" d="M150.72,-485.67C142.58,-484.19 121.57,-479.15 112.04,-465.6 95.75,-442.44 97.5,-407.25 99.92,-388.65"/>
<polygon fill="black" stroke="black" points="103.41,-389.03 101.52,-378.6 96.49,-387.93 103.41,-389.03"/>
<text text-anchor="middle" x="152.04" y="-454.4" font-family="Times,serif" font-size="14.00">genome_ch</text>
</g>
<!-- p6 -->
<g id="node8" class="node">
<title>p6</title>
<ellipse fill="none" stroke="black" cx="299.04" cy="-350.1" rx="3.5" ry="3.5"/>
<text text-anchor="middle" x="280.04" y="-357.4" font-family="Times,serif" font-size="14.00">first</text>
</g>
<!-- p5&#45;&gt;p6 -->
<g id="edge6" class="edge">
<title>p5&#45;&gt;p6</title>
<path fill="none" stroke="black" d="M294.68,-396.52C295.67,-386.18 296.91,-373.22 297.82,-363.79"/>
<polygon fill="black" stroke="black" points="301.32,-363.99 298.79,-353.71 294.35,-363.33 301.32,-363.99"/>
</g>
<!-- p2 -->
<g id="node4" class="node">
<title>p2</title>
<ellipse fill="black" stroke="black" cx="478.04" cy="-487.2" rx="3.6" ry="3.6"/>
<text text-anchor="middle" x="409.44" y="-494.6" font-family="Times,serif" font-size="14.00">Channel.fromPath</text>
</g>
<!-- p3 -->
<g id="node5" class="node">
<title>p3</title>
<ellipse fill="none" stroke="black" cx="478.04" cy="-414.6" rx="3.5" ry="3.5"/>
<text text-anchor="middle" x="503.54" y="-421.9" font-family="Times,serif" font-size="14.00">ifEmpty</text>
</g>
<!-- p2&#45;&gt;p3 -->
<g id="edge3" class="edge">
<title>p2&#45;&gt;p3</title>
<path fill="none" stroke="black" d="M478.04,-483.52C478.04,-474.61 478.04,-445.58 478.04,-428.49"/>
<polygon fill="black" stroke="black" points="481.54,-428.28 478.04,-418.28 474.54,-428.28 481.54,-428.28"/>
</g>
<!-- p4 -->
<g id="node6" class="node">
<title>p4</title>
<ellipse fill="none" stroke="black" cx="426.04" cy="-350.1" rx="3.5" ry="3.5"/>
<text text-anchor="middle" x="407.04" y="-357.4" font-family="Times,serif" font-size="14.00">map</text>
</g>
<!-- p3&#45;&gt;p4 -->
<g id="edge4" class="edge">
<title>p3&#45;&gt;p4</title>
<path fill="none" stroke="black" d="M476.23,-411.15C473.76,-407.81 469.15,-401.68 465.04,-396.6 454.84,-384.01 442.63,-369.91 434.61,-360.79"/>
<polygon fill="black" stroke="black" points="437.11,-358.33 427.87,-353.15 431.87,-362.96 437.11,-358.33"/>
</g>
<!-- p7 -->
<g id="node7" class="node">
<title>p7</title>
<ellipse fill="none" stroke="black" cx="302.04" cy="-277.6" rx="171.67" ry="18"/>
<text text-anchor="middle" x="302.04" y="-273.9" font-family="Times,serif" font-size="14.00">vcftosnpFlow:MINIMAP2_TO_BAM</text>
</g>
<!-- p4&#45;&gt;p7 -->
<g id="edge5" class="edge">
<title>p4&#45;&gt;p7</title>
<path fill="none" stroke="black" d="M423.45,-347.63C412.88,-341.62 372.06,-318.41 340.64,-300.55"/>
<polygon fill="black" stroke="black" points="342.07,-297.33 331.65,-295.43 338.61,-303.42 342.07,-297.33"/>
<text text-anchor="middle" x="422.04" y="-317.4" font-family="Times,serif" font-size="14.00">reads_ch</text>
</g>
<!-- p8 -->
<g id="node9" class="node">
<title>p8</title>
<ellipse fill="none" stroke="black" cx="283.04" cy="-204.6" rx="129.98" ry="18"/>
<text text-anchor="middle" x="283.04" y="-200.9" font-family="Times,serif" font-size="14.00">vcftosnpFlow:SAMTOOLS</text>
</g>
<!-- p7&#45;&gt;p8 -->
<g id="edge8" class="edge">
<title>p7&#45;&gt;p8</title>
<path fill="none" stroke="black" d="M297.44,-259.41C295.27,-251.3 292.63,-241.44 290.2,-232.38"/>
<polygon fill="black" stroke="black" points="293.56,-231.38 287.6,-222.63 286.8,-233.19 293.56,-231.38"/>
</g>
<!-- p6&#45;&gt;p7 -->
<g id="edge7" class="edge">
<title>p6&#45;&gt;p7</title>
<path fill="none" stroke="black" d="M299.15,-346.42C299.44,-339.76 300.2,-321.84 300.87,-306.09"/>
<polygon fill="black" stroke="black" points="304.38,-305.84 301.31,-295.7 297.39,-305.54 304.38,-305.84"/>
</g>
<!-- p10 -->
<g id="node10" class="node">
<title>p10</title>
<ellipse fill="none" stroke="black" cx="283.04" cy="-131.6" rx="112.38" ry="18"/>
<text text-anchor="middle" x="283.04" y="-127.9" font-family="Times,serif" font-size="14.00">vcftosnpFlow:PICARD</text>
</g>
<!-- p8&#45;&gt;p10 -->
<g id="edge9" class="edge">
<title>p8&#45;&gt;p10</title>
<path fill="none" stroke="black" d="M283.04,-186.41C283.04,-178.39 283.04,-168.65 283.04,-159.67"/>
<polygon fill="black" stroke="black" points="286.54,-159.63 283.04,-149.63 279.54,-159.63 286.54,-159.63"/>
</g>
<!-- p9 -->
<g id="node11" class="node">
<title>p9</title>
<ellipse fill="black" stroke="black" cx="151.04" cy="-131.6" rx="1.8" ry="1.8"/>
</g>
<!-- p8&#45;&gt;p9 -->
<g id="edge10" class="edge">
<title>p8&#45;&gt;p9</title>
<path fill="none" stroke="black" d="M231.34,-188.05C208.36,-179.34 182.05,-166.73 162.04,-149.6 159.78,-147.67 157.82,-145.16 156.2,-142.66"/>
<polygon fill="black" stroke="black" points="159.22,-140.89 151.47,-133.67 153.02,-144.15 159.22,-140.89"/>
</g>
<!-- p13 -->
<g id="node12" class="node">
<title>p13</title>
<ellipse fill="none" stroke="black" cx="128.04" cy="-58.6" rx="128.08" ry="18"/>
<text text-anchor="middle" x="128.04" y="-54.9" font-family="Times,serif" font-size="14.00">vcftosnpFlow:BCFTOOLS</text>
</g>
<!-- p10&#45;&gt;p13 -->
<g id="edge11" class="edge">
<title>p10&#45;&gt;p13</title>
<path fill="none" stroke="black" d="M247.87,-114.49C225.63,-104.3 196.69,-91.05 172.82,-80.11"/>
<polygon fill="black" stroke="black" points="174.16,-76.88 163.61,-75.89 171.24,-83.24 174.16,-76.88"/>
</g>
<!-- p11 -->
<g id="node13" class="node">
<title>p11</title>
<ellipse fill="black" stroke="black" cx="283.04" cy="-58.6" rx="1.8" ry="1.8"/>
</g>
<!-- p10&#45;&gt;p11 -->
<g id="edge12" class="edge">
<title>p10&#45;&gt;p11</title>
<path fill="none" stroke="black" d="M283.04,-113.41C283.04,-100.17 283.04,-82.25 283.04,-70.81"/>
<polygon fill="black" stroke="black" points="286.54,-70.43 283.04,-60.43 279.54,-70.43 286.54,-70.43"/>
</g>
<!-- p14 -->
<g id="node15" class="node">
<title>p14</title>
<ellipse fill="black" stroke="black" cx="128.04" cy="-1.8" rx="1.8" ry="1.8"/>
</g>
<!-- p13&#45;&gt;p14 -->
<g id="edge15" class="edge">
<title>p13&#45;&gt;p14</title>
<path fill="none" stroke="black" d="M128.04,-40.56C128.04,-31.87 128.04,-21.56 128.04,-13.9"/>
<polygon fill="black" stroke="black" points="131.54,-13.76 128.04,-3.76 124.54,-13.76 131.54,-13.76"/>
</g>
<!-- p12&#45;&gt;p13 -->
<g id="edge14" class="edge">
<title>p12&#45;&gt;p13</title>
<path fill="none" stroke="black" d="M102.04,-371.28C102.04,-363.47 102.04,-340.88 102.04,-322.1 102.04,-322.1 102.04,-322.1 102.04,-130.6 102.04,-115.22 107.48,-99.05 113.39,-86.03"/>
<polygon fill="black" stroke="black" points="116.67,-87.28 117.91,-76.76 110.38,-84.21 116.67,-87.28"/>
</g>
</g>
</svg>
